# xmcd
#
# Track frame offsets: 
#        150
#        59837
#        100225
#        118122
#        183234
#        261296
#        291752
#
# Disc length: 4125 seconds
#
# Revision: 0
# Processed by: cddbd v1.5.2PL0 Copyright (c) Steve Scherf et al.
# Submitted via: ExactAudioCopy v0.99pb4
#
DISCID=6a101b07
DTITLE=Michael Bisio and Joe McPhee - Zebulon
DYEAR=1999
DGENRE=jazz
TTITLE0=Makeover Makeover
TTITLE1=Kind of a Ballad
TTITLE2=Duosalbosity 2
TTITLE3=Something Different
TTITLE4=Gracie's Amazing
TTITLE5=Undulation
TTITLE6=Denis and Charles
EXTD=
EXTT0=
EXTT1=
EXTT2=
EXTT3=
EXTT4=
EXTT5=
EXTT6=
PLAYORDER=
